<svg width="130" height="32" viewBox="0 0 130 32" fill="none" xmlns="http://www.w3.org/2000/svg">
<path fill-rule="evenodd" clip-rule="evenodd" d="M11.1488 0.0301619C7.9402 0.0301619 6.33466 0.0301619 4.61954 0.56329C2.72712 1.24909 1.23485 2.74136 0.549053 4.63624C0.00238037 6.3686 0.00238037 7.97168 0.00238037 11.1815V20.8664C0.00238037 24.0935 0.00238037 25.6831 0.535509 27.4117C1.22131 29.3054 2.71357 30.7977 4.60599 31.4835C6.33712 32.0326 7.9402 32.0326 11.1488 32.0326H20.8436C24.0559 32.0326 25.6578 32.0326 27.3852 31.4835C29.2789 30.7976 30.7699 29.3054 31.4557 27.4117C32.0024 25.6794 32.0024 24.0763 32.0024 20.8664V11.1951C32.0024 7.98153 32.0024 6.37845 31.4557 4.64978C30.7699 2.75613 29.2776 1.26387 27.3852 0.578064C25.6418 0.0289307 24.0559 0.0289307 20.8276 0.0289307H11.1476C11.1476 0.0289307 11.1488 0.0301619 11.1488 0.0301619Z" fill="#00D633"/>
<path d="M17.2971 14.4765C20.6689 15.199 22.2103 16.5959 22.2103 18.9561C22.2103 21.915 19.8009 24.0991 16.0397 24.3303L15.6728 26.0805C15.6369 26.2515 15.486 26.374 15.3112 26.374H12.4177C12.1792 26.374 12.0032 26.1514 12.0583 25.9194L12.5227 23.9622C10.6584 23.4317 9.15817 22.3999 8.28361 21.1262C8.17351 20.9658 8.21003 20.7467 8.36358 20.6273L10.386 19.0543C10.5527 18.9246 10.7916 18.9626 10.9149 19.1341C11.9865 20.6257 13.6306 21.509 15.6112 21.509C17.3934 21.509 18.7421 20.642 18.7421 19.3896C18.7421 18.4263 18.0678 17.9928 15.8039 17.5111C11.9022 16.6922 10.3609 15.2472 10.3609 12.8869C10.3609 10.1484 12.6624 8.07972 16.134 7.81104L16.513 6.00341C16.5489 5.83235 16.6997 5.70984 16.8745 5.70984H19.7292C19.9647 5.70984 20.1401 5.92726 20.0902 6.15743L19.6514 8.1828C21.1453 8.64264 22.3617 9.46485 23.1189 10.4795C23.2362 10.6367 23.2061 10.8594 23.0543 10.9838L21.2091 12.4969C21.0488 12.6284 20.8147 12.5997 20.6843 12.4384C19.7465 11.2785 18.2702 10.623 16.6709 10.623C14.8887 10.623 13.7808 11.3937 13.7808 12.5016C13.7808 13.4168 14.6478 13.8985 17.2971 14.4765Z" fill="white"/>
<path d="M50.4858 8.22462C50.4316 8.08073 50.2939 7.98547 50.1401 7.98547H47.1367C46.9829 7.98547 46.8452 8.08083 46.791 8.22483L41.005 23.6112C40.9142 23.8527 41.0927 24.1105 41.3507 24.1105H43.6259C43.7803 24.1105 43.9185 24.0145 43.9722 23.8697L45.2079 20.5397H52.0127L53.2592 23.8706C53.3132 24.0149 53.451 24.1105 53.6051 24.1105H55.9368C56.195 24.1105 56.3735 23.8525 56.2825 23.6109L50.4858 8.22462ZM46.196 17.8784L48.5878 11.4103L51.0133 17.8784H46.196Z" fill="white"/>
<path d="M70.9146 21.681C70.7061 21.6987 70.5081 21.7075 70.2259 21.7075C69.2827 21.7075 68.6987 21.584 68.6987 20.5509V14.7678H70.7661C70.9701 14.7678 71.1354 14.6025 71.1354 14.3985V12.6781C71.1354 12.4741 70.9701 12.3087 70.7661 12.3087H68.6987V9.2644C68.6987 9.0604 68.5333 8.89503 68.3293 8.89503H66.1934C65.9894 8.89503 65.824 9.0604 65.824 9.2644V12.3087H61.1642V11.7922C61.1642 10.5345 61.7144 10.2314 62.7363 10.2314C62.9102 10.2314 63.0393 10.2314 63.1651 10.2344C63.3731 10.2395 63.5448 10.0733 63.5448 9.86525V8.13184C63.5448 7.93474 63.3897 7.77194 63.1928 7.76283C62.909 7.74969 62.697 7.74969 62.3769 7.74969C59.6033 7.74969 58.2445 9.13088 58.2445 11.6012V12.3087H56.9969C56.7929 12.3087 56.6276 12.4741 56.6276 12.6781V14.3985C56.6276 14.6025 56.7929 14.7678 56.9969 14.7678H58.2445V23.7412C58.2445 23.9452 58.4099 24.1106 58.6139 24.1106H60.7948C60.9988 24.1106 61.1642 23.9452 61.1642 23.7412V14.7678H65.824V21.0899C65.824 23.5043 67.0592 24.2453 69.3725 24.2453C69.9749 24.2453 70.5328 24.2008 71.004 24.1298C71.1837 24.1028 71.3152 23.9466 71.3152 23.7649V22.0489C71.3152 21.8326 71.1301 21.6626 70.9146 21.681Z" fill="white"/>
<path d="M78.2433 12.0841C74.9308 12.0841 72.5614 14.7455 72.5614 18.2152C72.5614 21.8647 74.9308 24.3576 78.3556 24.3576C80.5735 24.3576 82.4139 23.2749 83.3257 21.3898C83.4198 21.1952 83.3206 20.9614 83.1176 20.887L81.3492 20.2388C81.1685 20.1725 80.9655 20.2556 80.8872 20.4314C80.4537 21.4049 79.5163 21.9209 78.3669 21.9209C76.7275 21.9209 75.5709 20.7642 75.3575 18.8553H83.1854C83.3894 18.8553 83.5548 18.6899 83.5548 18.4859V17.9457C83.5548 14.6781 81.7019 12.0841 78.2433 12.0841ZM75.481 16.7779C75.874 15.262 76.8959 14.476 78.221 14.476C79.8379 14.476 80.6127 15.5427 80.6352 16.7779H75.481Z" fill="white"/>
<path d="M92.1399 12.2555C92.0144 12.247 91.8762 12.2413 91.7181 12.2413C90.2358 12.2413 89.0456 12.9488 88.529 14.0156V12.6781C88.529 12.4741 88.3636 12.3087 88.1596 12.3087H85.9788C85.7748 12.3087 85.6094 12.4741 85.6094 12.6781V23.7412C85.6094 23.9452 85.7748 24.1106 85.9788 24.1106H88.1596C88.3636 24.1106 88.529 23.9452 88.529 23.7412V18.0132C88.529 16.1603 89.8092 15.1048 91.4823 15.1048C91.7077 15.1048 91.894 15.1126 92.0804 15.1283C92.2962 15.1464 92.4817 14.9771 92.4817 14.7605V12.6239C92.4817 12.4305 92.3328 12.2686 92.1399 12.2555Z" fill="white"/>
<path d="M100.656 12.0841C99.1517 12.0841 98.0287 12.6793 97.31 13.5439V12.6781C97.31 12.4741 97.1446 12.3087 96.9406 12.3087H94.7598C94.5558 12.3087 94.3904 12.4741 94.3904 12.6781V27.7612C94.3904 27.9652 94.5558 28.1306 94.7598 28.1306H96.9406C97.1446 28.1306 97.31 27.9652 97.31 27.7612V22.8866C98.0287 23.7624 99.1517 24.3576 100.656 24.3576C103.935 24.3576 105.822 21.5727 105.822 18.2152C105.822 14.869 103.935 12.0841 100.656 12.0841ZM100.016 21.8311C98.4329 21.8311 97.2427 20.6519 97.2427 18.5633V17.8896C97.2427 15.7673 98.4329 14.6107 100.016 14.6107C101.88 14.6107 102.88 16.0817 102.88 18.2152C102.88 20.36 101.88 21.8311 100.016 21.8311Z" fill="white"/>
<path d="M117.792 21.9059C117.337 21.8855 117.152 21.6529 117.152 21.1236V16.1715C117.152 13.4429 115.4 12.0841 112.492 12.0841C109.977 12.0841 108.276 13.4419 107.598 15.22C107.516 15.4338 107.643 15.6703 107.868 15.7168L109.896 16.1374C110.075 16.1744 110.255 16.0754 110.317 15.904C110.643 15.0043 111.273 14.5545 112.379 14.5545C113.749 14.5545 114.299 15.217 114.299 16.2839V16.4747L111.2 17.0923C108.876 17.5415 107.09 18.5297 107.09 20.8316C107.09 22.9314 108.809 24.3127 111.088 24.3127C112.626 24.3127 113.839 23.8298 114.592 22.9989C115.025 23.9195 116.048 24.3216 117.818 24.1487C118.007 24.1303 118.151 23.9704 118.151 23.7806V22.2746C118.151 22.075 117.992 21.9148 117.792 21.9059ZM114.299 19.9333C114.299 21.3145 112.986 22.0444 111.605 22.0444C110.616 22.0444 109.976 21.5503 109.976 20.6857C109.976 19.6862 110.785 19.3382 111.874 19.1136L114.299 18.6083V19.9333Z" fill="white"/>
<path d="M129.487 12.3087H127.309C127.151 12.3087 127.01 12.4096 126.959 12.5595L124.327 20.3263L121.628 12.5569C121.577 12.4083 121.437 12.3087 121.279 12.3087H119.032C118.774 12.3087 118.596 12.5665 118.687 12.808L122.766 23.6614L122.351 24.6832C121.991 25.5815 121.553 25.8174 120.689 25.8174C120.493 25.8174 120.344 25.8103 120.188 25.7981C119.974 25.7813 119.79 25.9511 119.79 26.1663V27.8327C119.79 28.0228 119.935 28.1825 120.124 28.2004C120.345 28.2212 120.56 28.2317 120.958 28.2317C123.485 28.2317 124.54 26.9403 125.259 24.9977L129.833 12.8079C129.924 12.5664 129.745 12.3087 129.487 12.3087Z" fill="white"/>
</svg>
